<?xml version="1.0" standalone="no"?>
<!DOCTYPE svg PUBLIC "-//W3C//DTD SVG 20010904//EN"
 "http://www.w3.org/TR/2001/REC-SVG-20010904/DTD/svg10.dtd">
<svg version="1.0" xmlns="http://www.w3.org/2000/svg"
 width="512.000000pt" height="512.000000pt" viewBox="0 0 512.000000 512.000000"
 preserveAspectRatio="xMidYMid meet">
<metadata>
Created by potrace 1.14, written by Peter Selinger 2001-2017
</metadata>
<g transform="translate(0.000000,512.000000) scale(0.100000,-0.100000)"
fill="#000000" stroke="none">
<path d="M1120 5088 c-36 -4 -66 -12 -68 -18 -2 -5 -8 -8 -13 -5 -4 3 -21 -2
-36 -12 -15 -10 -28 -16 -29 -13 -3 7 -87 -55 -112 -82 -59 -63 -84 -98 -112
-155 -36 -73 -66 -206 -64 -283 1 -50 -2 -57 -29 -80 -42 -35 -118 -110 -111
-110 3 0 -1 -7 -8 -15 -27 -30 -34 -42 -62 -104 -30 -68 -30 -68 -42 -151 -9
-71 -10 -3583 0 -3599 4 -6 10 -24 12 -39 3 -15 23 -63 44 -107 35 -73 73
-120 166 -203 21 -19 121 -70 184 -94 52 -20 3329 -24 3411 -4 64 15 170 64
213 98 48 38 115 109 121 129 4 11 10 19 15 19 17 0 74 143 86 216 9 54 9
3515 0 3589 -15 115 -85 251 -170 327 -17 16 -39 36 -49 45 -11 10 -23 17 -28
16 -5 -2 -9 1 -9 6 0 5 -20 17 -45 28 -25 10 -45 21 -45 25 0 4 -7 5 -15 2 -8
-4 -15 -1 -15 6 0 6 -4 9 -9 5 -5 -3 -12 -1 -16 4 -3 6 -12 8 -19 5 -19 -7
-25 4 -32 72 -6 66 -37 166 -62 204 -9 14 -15 29 -14 33 1 4 -5 10 -13 13 -8
3 -13 10 -10 14 9 15 -121 135 -181 166 -78 42 -135 57 -212 56 -158 -2 -304
-86 -394 -225 -28 -44 -32 -46 -44 -30 -7 10 -14 21 -14 26 -1 20 -128 147
-147 147 -7 0 -13 4 -13 8 0 9 -73 43 -131 61 -90 29 -221 11 -324 -43 -65
-34 -153 -117 -187 -178 -22 -39 -38 -49 -38 -23 0 14 -16 37 -47 70 -7 8 -13
19 -13 25 0 6 -4 9 -9 5 -5 -3 -12 4 -16 15 -3 11 -13 20 -21 20 -8 0 -14 3
-14 8 0 14 -95 69 -159 92 -64 22 -149 28 -220 15 -43 -7 -134 -45 -143 -59
-4 -6 -8 -7 -8 -3 0 22 -170 -151 -170 -173 0 -5 -5 -10 -11 -10 -5 0 -7 -4
-4 -10 3 -5 4 -10 1 -10 -3 0 -20 21 -38 48 -48 71 -124 138 -192 171 -106 51
-162 62 -266 49z m172 -307 c21 -14 38 -30 38 -34 0 -5 9 -22 20 -37 21 -29
50 -128 43 -145 -2 -7 -56 -11 -143 -10 -86 0 -140 -4 -141 -10 0 -7 -2 -7 -5
0 -2 6 -33 9 -70 7 l-66 -3 6 33 c9 56 11 62 35 108 69 135 172 168 283 91z
m788 33 c0 12 55 -21 84 -50 46 -46 76 -115 80 -179 l1 -30 -210 0 c-204 0
-210 1 -208 20 3 49 23 115 34 115 5 0 9 7 9 15 0 19 65 85 100 102 33 16 82
21 98 10 6 -5 12 -7 12 -3z m856 2 c30 -4 88 -51 118 -96 14 -22 24 -40 21
-40 -3 0 1 -12 8 -27 7 -16 14 -44 16 -64 l2 -36 -214 1 -214 0 9 41 c10 48
34 111 48 128 6 7 18 21 28 33 31 38 94 71 127 67 16 -2 39 -5 51 -7z m912
-32 c18 -14 45 -44 59 -67 28 -44 55 -138 44 -154 -4 -6 -88 -10 -214 -10
l-209 1 7 40 c7 49 64 168 76 160 5 -3 9 0 9 5 0 15 77 64 89 57 5 -4 12 -2
15 3 9 15 87 -8 124 -35z"/>
</g>
</svg>
